<?xml version="1.0"?><svg width="600" height="600" xmlns="http://www.w3.org/2000/svg">
 <!-- Created with SVG-edit - http://svg-edit.googlecode.com/ -->

 <g>
  <title>Layer 1</title>
  <path fill="none" stroke="#7f7f7f" stroke-width="5" id="svg_6" d="m330,186c0,1 0,2 0,3c0,1 -0.38269,2.076126 0,3c0.541199,1.306564 1,2 2,3c1,1 2.076111,1.61731 3,2c2.613129,1.082397 3,2 4,2c1,0 3,0 4,0c1,0 2.076111,0.38269 3,0c1.306549,-0.541199 1,-2 1,-3c0,-1 0,-2 0,-3c0,-1 0,-2 0,-3c0,-1 -0.292908,-1.292892 -1,-2c-1.414215,-1.414215 -0.292908,-3.292892 -1,-4c-0.707092,-0.707108 -0.292908,-1.292892 -1,-2c-0.707092,-0.707108 -1.292908,-0.292892 -2,-1c-0.707092,-0.707108 -1.076111,-0.61731 -2,-1c-1.306549,-0.541199 -2,-1 -3,-1c-1,0 -2,0 -3,0c-1,0 -2.292908,-0.707108 -3,0c-0.707092,0.707108 0,2 0,3c0,1 0,2 0,3c0,1 0,2 0,3l0,1l0,1l0,1"/>
  <line fill="none" stroke="#7f7f7f" stroke-width="5" x1="339" y1="199.999998" x2="339" y2="339.000002" id="svg_15"/>
  <path fill="none" stroke="#666666" stroke-width="5" id="svg_16" d="m339,337c0,1 -0.486267,2.823761 -1,5c-0.229767,0.973236 -1,1 -1,2c0,1 -1,1 -1,3c0,1 0.707092,2.292908 0,3c-1.414215,1.414215 -2,1 -4,1c-1,0 -2,1 -4,1c-2,0 -4,1 -7,1c-2,0 -4,0 -6,0c-2,0 -5.038727,0.48056 -8,0c-6.242889,-1.013092 -8,-3 -10,-3c-2,0 -2.386871,-0.917603 -5,-2c-0.923889,-0.38269 -2.824432,-0.0979 -4,-2c-0.525726,-0.850647 -0.839813,-3.012909 -1,-4c-0.506531,-3.121429 -1.486267,-3.823761 -2,-6c-0.229767,-0.973236 0,-2 0,-3c0,-1 0,-2 0,-3c0,-1 0,-2 0,-3c0,-1 0,-2 0,-3c0,-1 0,-2 0,-3c0,-1 0,-2 0,-3c0,-1 0,-2 0,-3c0,-1 0,-2 0,-3c0,-1 0.292908,-2.707092 1,-2c0.707092,0.707092 0.292908,1.292908 1,2c0.707092,0.707092 1.458801,1.693451 2,3c0.38269,0.923889 0.292908,1.292908 1,2c0.707092,0.707092 0.850647,1.525726 0,1c-1.9021,-1.175568 -1.292908,-2.292908 -2,-3c-0.707092,-0.707092 0,-2 0,-3l-1,0l0,-1"/>
  <line fill="none" stroke="#191919" stroke-width="5" x1="343" y1="184.000003" x2="342" y2="21.000001" id="svg_28"/>
 </g>
</svg>